<?xml version="1.0" encoding="utf-8"?>
<!-- Generated by IcoMoon.io -->
<!DOCTYPE svg PUBLIC "-//W3C//DTD SVG 1.1//EN" "http://www.w3.org/Graphics/SVG/1.1/DTD/svg11.dtd">
<svg version="1.1" xmlns="http://www.w3.org/2000/svg" xmlns:xlink="http://www.w3.org/1999/xlink" width="788" height="40" viewBox="0 0 788 40">
<svg id="aside-icons-familyalbum" width="18" height="18" viewBox="0 0 18 18" x="0" y="0">
<path fill="#8e8e8e" d="M1.329 9.496l-1.329-1.495 8.999-8.001 1.329 1.496-8.999 8zM7.67 1.496l1.329-1.496 9.001 8.001-1.329 1.496-9.001-8.001zM10.328 1.496v0z"></path>
<path fill="#8e8e8e" d="M14 7h1.999v11h-1.999v-11zM15.999 16.001v1.999h-14v-1.999h14zM4 18h-2.001v-11h2.001v11zM15.999 18v0zM15.999 18v0zM4 18v0zM1.999 18v0z"></path>
<path fill="#8e8e8e" d="M11 13.002h-4v-4.001h4v4.001z"></path>
</svg>
<svg id="aside-icons-allphoto_hover" width="18" height="18" viewBox="0 0 18 18" x="22" y="0">
<path fill="#2b89ea" d="M1.999 0h14c1.105 0 2.001 0.894 2.001 1.999v14c0 1.105-0.896 2.001-2.001 2.001h-14c-1.105 0-1.999-0.896-1.999-2.001v-14c0-1.105 0.894-1.999 1.999-1.999v0z"></path>
<path fill="#ebeef2" d="M15.999 8.999v7h-14v-4.001l1.001 1.001h5.999v-1.001h1v-0.998h1.001v-1.001h0.998v-1h2.002v-1.001h1.999v1.001z"></path>
<path fill="#ebeef2" d="M1.999 13.685v-2.102c1.027 0.719 3.802 1.758 6.002 0.416 1.582-0.964 2.695-1.863 3.583-2.585 1.691-1.368 2.588-2.093 4.415-1.415v1.709c-0.685-0.255-1.454-0.114-3.156 1.262-0.938 0.758-2.106 1.702-3.802 2.736-2.385 1.454-4.881 1.589-7.042 0.075z"></path>
<path fill="#ebeef2" d="M4 4.998h3v3h-3v-3z"></path>
</svg>
<svg id="aside-icons-allphoto" width="18" height="18" viewBox="0 0 18 18" x="44" y="0">
<path fill="#8e8e8e" d="M15.999 15.999v0-14h-14v14h14zM15.999 18h-14c-1.105 0-1.999-0.896-1.999-2.001v-14c0-1.105 0.894-1.999 1.999-1.999h14c1.105 0 2.001 0.894 2.001 1.999v14c0 1.105-0.896 2.001-2.001 2.001v0 0z"></path>
<path fill="#8e8e8e" d="M0.38 12.173l1.613-1.183c0.005 0.010 2.369 3.229 6.007 1.009 1.212-0.74 2.207-1.48 3.065-2.121 2.392-1.782 3.745-2.794 5.934-0.878l-1.001 1.5c-0.915-0.803-1.287-0.846-3.737 0.981-0.857 0.641-1.926 1.439-3.221 2.226-4.118 2.512-7.461 0.102-8.655-1.522l-0.005-0.012z"></path>
<path fill="#8e8e8e" d="M7 7.998h-3v-3h3v3z"></path>
</svg>
<svg id="aside-icons-personalalbum_hover" width="18" height="18" viewBox="0 0 18 18" x="66" y="0">
<path fill="#f09e3d" d="M0 5.999v-1.999l4 0.001v1.999l-4-0.001zM0 14v-2.001l4 0.001v2.001l-4-0.001zM0 9.999v-1.998l4 0.001v1.999l-4-0.002z"></path>
<path fill="#f09e3d" d="M1.001 17.001v-16.002h16.999v16.001l-16.999 0.001zM11.998 7.501c0-1.381-1.118-2.501-2.499-2.501s-2.499 1.12-2.499 2.501c0 0.808 0.388 1.517 0.982 1.975-1.17 0.75-1.983 2.327-1.983 4.167 0 0.122 0.021 0.237 0.029 0.357h6.945c0.005-0.12 0.026-0.234 0.026-0.357 0-1.84-0.813-3.417-1.983-4.167 0.594-0.458 0.982-1.167 0.982-1.975v0z"></path>
</svg>
<svg id="aside-icons-personalalbum" width="18" height="18" viewBox="0 0 18 18" x="88" y="0">
<path fill="#8e8e8e" d="M1.001 17.001v-16.002h16.999v16.001l-16.999 0.001zM15.999 3.001h-12.999v12.001h12.999v-12.001z"></path>
<path fill="#8e8e8e" d="M0 6v-1.998h4v1.998h-4zM0 14.001v-2.001h4v2.001h-4zM0 10.001v-1.999h4v1.999h-4z"></path>
<path fill="#8e8e8e" d="M9.499 5c1.381 0 2.499 1.12 2.499 2.502 0 1.379-1.118 2.499-2.499 2.499s-2.499-1.121-2.499-2.5c0-1.381 1.118-2.501 2.499-2.501v0z"></path>
<path fill="#8e8e8e" d="M6.028 14.001c-0.008-0.12-0.029-0.234-0.029-0.357 0-2.564 1.566-4.644 3.5-4.644s3.5 2.080 3.5 4.644c0 0.122-0.021 0.237-0.026 0.357h-6.945z"></path>
</svg>
<svg id="aside-icons-story_hover" width="18" height="18" viewBox="0 0 18 18" x="110" y="0">
<path fill="#2b89ea" d="M9.999 17.189v0.399l-1-0.198-0.998 0.198v-0.399l-8.001-1.6v-15l8.001 1.6v7.401h1.999v-7.401l8-1.6v15.001l-8.001 1.599zM9.999 11.589h-1.998v1.999h1.999v-1.999h-0.001z"></path>
</svg>
<svg id="aside-icons-story" width="18" height="18" viewBox="0 0 18 18" x="132" y="0">
<path fill="#8e8e8e" d="M8.999 15.261l7-1.399v-10.922l-7 1.399-7-1.399v10.922l7 1.399zM10 17.5l-1.001-0.198-1.001 0.198v-0.399l-7.998-1.6v-15.001l8.999 1.801 9.001-1.801v15.001l-8 1.6v0.399z"></path>
<path fill="#8e8e8e" d="M10 9.502h-1.999v-7h1.999v7z"></path>
<path fill="#8e8e8e" d="M10 13.499h-1.999v-1.998h1.999v1.998z"></path>
</svg>
<svg id="aside-icons-familyalbum_hover" width="18" height="18" viewBox="0 0 18 18" x="154" y="0">
<path fill="#2b89ea" d="M1.329 9.496l-1.329-1.495 8.999-8.001 1.329 1.496-8.999 8zM7.67 1.496l1.329-1.496 9.001 8.001-1.329 1.496-9.001-8.001zM10.328 1.496v0z"></path>
<path fill="#2b89ea" d="M1.999 18v-11l7-5.999 7 5.999v11h-14zM11 9.001h-4v4h4v-4z"></path>
</svg>
<svg id="aside-icons-allfile" width="18" height="18" viewBox="0 0 18 18" x="176" y="0">
<path fill="#8e8e8e" d="M15.998 15v0-10h-8.999v-2l-5.001-0.002v2.001l0.002 10.001h13.998zM15.998 17.001h-13.998c-1.106 0-2.001-0.897-2.001-2.001v-12.002c0-1.104 0.895-1.999 2.001-1.999h4.999c1.104 0 1.999 0.895 1.999 1.999h7c1.104 0 2.001 0.897 2.001 2.001v10c0 1.104-0.897 2.002-2.001 2.002v0 0z"></path>
<path fill="#8e8e8e" d="M14.999 8.999h-6.001v-1.999h6.001v1.999z"></path>
<path fill="#8e8e8e" d="M14.999 12.999h-7v-1.999h7v1.999z"></path>
</svg>
<svg id="aside-icons-allfile_hover" width="18" height="18" viewBox="0 0 18 18" x="198" y="0">
<path fill="#2b89ea" d="M15.999 17.001h-14c-1.104 0-1.999-0.896-1.999-2.001v-12c0-1.104 0.895-2.001 1.999-2.001h5.001c1.104 0 1.999 0.897 1.999 2.001h7c1.106 0 2.001 0.896 2.001 2.001v9.999c0 1.105-0.895 2.001-2.001 2.001v0zM15 7h-6.001v2.001h6.001v-2.001zM15 11h-7v2.001h7v-2.001z"></path>
</svg>
<svg id="aside-icons-favorite" width="18" height="18" viewBox="0 0 18 18" x="220" y="0">
<path fill="#8e8e8e" d="M8.938 14.998c1.468-0.344 7.063-4.576 7.063-8.46 0-2.959-1.153-3.538-3.144-3.538-0.811 0-1.537 0.272-2.176 0.514-0.559 0.211-1.088 0.409-1.68 0.409-0.61 0-1.121-0.201-1.662-0.413-0.61-0.24-1.303-0.51-2.196-0.51-1.989 0-3.142 0.579-3.142 3.538 0 4.104 5.369 8.344 6.937 8.46zM9.001 17.001c-2.638 0-9.001-5.218-9.001-10.463 0-3.291 1.32-5.538 5.143-5.538 1.991 0 3.219 0.923 3.858 0.923 0.624 0 2.001-0.923 3.856-0.923 3.783-0.001 5.143 2.236 5.143 5.538 0 5.221-7.136 10.463-8.999 10.463v0 0z"></path>
</svg>
<svg id="aside-icons-favorite_hover" width="18" height="18" viewBox="0 0 18 18" x="242" y="0">
<path fill="#f75a54" d="M9.001 1.923c0.624 0 2.001-0.923 3.856-0.923 3.783 0 5.143 2.235 5.143 5.539 0 5.219-7.136 10.461-8.999 10.461-2.638 0-9.001-5.216-9.001-10.461 0-3.294 1.32-5.539 5.143-5.539 1.991 0 3.219 0.923 3.858 0.923v0z"></path>
</svg>
<svg id="aside-icons-group" width="18" height="18" viewBox="0 0 18 18" x="264" y="0">
<path fill="#8e8e8e" d="M13.139 13.691c0.706 0 1.28 0.574 1.28 1.28s-0.574 1.28-1.28 1.28-1.28-0.574-1.28-1.28 0.575-1.28 1.28-1.28zM13.139 12.191c-1.535 0-2.78 1.245-2.78 2.78s1.245 2.78 2.78 2.78 2.78-1.245 2.78-2.78-1.244-2.78-2.78-2.78v0z"></path>
<path fill="#8e8e8e" d="M2.935 11.667c0.706 0 1.28 0.574 1.28 1.28s-0.574 1.28-1.28 1.28-1.28-0.574-1.28-1.28 0.574-1.28 1.28-1.28zM2.935 10.167c-1.535 0-2.78 1.245-2.78 2.78s1.245 2.78 2.78 2.78 2.78-1.245 2.78-2.78c0-1.535-1.245-2.78-2.78-2.78v0z"></path>
<path fill="#8e8e8e" d="M4.084 1.745c0.706 0 1.28 0.574 1.28 1.28s-0.574 1.28-1.28 1.28-1.28-0.574-1.28-1.28 0.574-1.28 1.28-1.28zM4.084 0.245c-1.535 0-2.78 1.245-2.78 2.78s1.245 2.78 2.78 2.78 2.78-1.245 2.78-2.78-1.245-2.78-2.78-2.78v0z"></path>
<path fill="#8e8e8e" d="M14.864 2.736c0.706 0 1.28 0.574 1.28 1.28s-0.574 1.28-1.28 1.28-1.28-0.574-1.28-1.28 0.575-1.28 1.28-1.28zM14.864 1.236c-1.535 0-2.78 1.245-2.78 2.78s1.245 2.78 2.78 2.78 2.78-1.245 2.78-2.78-1.244-2.78-2.78-2.78v0z"></path>
<path fill="#8e8e8e" d="M8.989 17.914c-2.068 0-4.085-0.724-5.68-2.036-0.319-0.264-0.365-0.736-0.102-1.056 0.263-0.322 0.734-0.367 1.056-0.102 1.326 1.093 3.005 1.694 4.726 1.694 0.414 0 0.75 0.336 0.75 0.75s-0.336 0.75-0.75 0.75z"></path>
<path fill="#8e8e8e" d="M15.375 14.852c-0.165 0-0.331-0.054-0.47-0.165-0.323-0.26-0.374-0.731-0.115-1.055 1.071-1.332 1.637-2.941 1.637-4.655 0-0.414 0.336-0.75 0.75-0.75s0.75 0.336 0.75 0.75c0 2.029-0.698 4.016-1.967 5.594-0.148 0.185-0.366 0.281-0.585 0.281z"></path>
<path fill="#8e8e8e" d="M13.566 2.938c-0.145 0-0.29-0.042-0.419-0.128-1.229-0.831-2.668-1.27-4.158-1.27-0.414 0-0.75-0.336-0.75-0.75s0.336-0.75 0.75-0.75c1.791 0 3.519 0.528 4.998 1.526 0.343 0.232 0.434 0.698 0.202 1.041-0.145 0.215-0.381 0.331-0.623 0.331z"></path>
<path fill="#8e8e8e" d="M0.805 9.728c-0.414 0-0.75-0.335-0.75-0.749-0.002-1.866 0.565-3.654 1.64-5.171 0.239-0.339 0.707-0.418 1.045-0.179s0.418 0.708 0.178 1.045c-0.894 1.262-1.365 2.75-1.363 4.302 0.001 0.416-0.335 0.752-0.75 0.752 0.001 0 0.001 0 0 0z"></path>
</svg>
<svg id="aside-icons-group_hover" width="18" height="18" viewBox="0 0 18 18" x="286" y="0">
<path fill="#c880d9" d="M6.295 3.035c0 1.252-1.015 2.267-2.267 2.267s-2.267-1.015-2.267-2.267c0-1.252 1.015-2.267 2.267-2.267s2.267 1.015 2.267 2.267z"></path>
<path fill="#c880d9" d="M4.028 5.801c-1.525 0-2.767-1.241-2.767-2.767s1.241-2.767 2.767-2.767 2.767 1.241 2.767 2.767-1.242 2.767-2.767 2.767zM4.028 1.268c-0.974 0-1.767 0.792-1.767 1.767s0.792 1.767 1.767 1.767 1.767-0.792 1.767-1.767-0.793-1.767-1.767-1.767z"></path>
<path fill="#c880d9" d="M17.233 4.028c0 1.252-1.015 2.267-2.267 2.267s-2.267-1.015-2.267-2.267c0-1.252 1.015-2.267 2.267-2.267s2.267 1.015 2.267 2.267z"></path>
<path fill="#c880d9" d="M14.966 6.795c-1.525 0-2.767-1.241-2.767-2.767s1.241-2.767 2.767-2.767 2.767 1.241 2.767 2.767-1.242 2.767-2.767 2.767zM14.966 2.262c-0.974 0-1.767 0.792-1.767 1.767s0.793 1.767 1.767 1.767 1.767-0.792 1.767-1.767-0.794-1.767-1.767-1.767z"></path>
<path fill="#c880d9" d="M15.244 14.965c0 1.252-1.015 2.267-2.267 2.267s-2.267-1.015-2.267-2.267c0-1.252 1.015-2.267 2.267-2.267s2.267 1.015 2.267 2.267z"></path>
<path fill="#c880d9" d="M12.978 17.732c-1.525 0-2.767-1.241-2.767-2.767s1.241-2.767 2.767-2.767 2.767 1.241 2.767 2.767-1.242 2.767-2.767 2.767zM12.978 13.199c-0.974 0-1.767 0.793-1.767 1.767s0.793 1.767 1.767 1.767 1.767-0.793 1.767-1.767-0.794-1.767-1.767-1.767z"></path>
<path fill="#c880d9" d="M5.301 12.977c0 1.252-1.015 2.267-2.267 2.267s-2.267-1.015-2.267-2.267c0-1.252 1.015-2.267 2.267-2.267s2.267 1.015 2.267 2.267z"></path>
<path fill="#c880d9" d="M3.034 15.743c-1.525 0-2.767-1.241-2.767-2.767s1.241-2.766 2.767-2.766 2.767 1.24 2.767 2.766-1.241 2.767-2.767 2.767zM3.034 11.211c-0.974 0-1.767 0.792-1.767 1.766s0.792 1.767 1.767 1.767 1.767-0.793 1.767-1.767-0.793-1.766-1.767-1.766z"></path>
<path fill="#c880d9" d="M9 17.952c-2.073 0-4.094-0.725-5.69-2.040-0.319-0.264-0.365-0.736-0.102-1.056s0.735-0.366 1.056-0.103c1.328 1.097 3.010 1.699 4.736 1.699 0.414 0 0.75 0.336 0.75 0.75s-0.336 0.75-0.75 0.75z"></path>
<path fill="#c880d9" d="M14.886 15.463c-0.188 0-0.377-0.070-0.522-0.212-0.297-0.288-0.304-0.764-0.016-1.061 1.357-1.398 2.105-3.242 2.105-5.191 0-0.414 0.336-0.75 0.75-0.75s0.75 0.336 0.75 0.75c0 2.342-0.898 4.557-2.529 6.236-0.148 0.152-0.343 0.228-0.538 0.228z"></path>
<path fill="#c880d9" d="M13.585 2.947c-0.145 0-0.29-0.042-0.419-0.128-1.232-0.834-2.673-1.274-4.166-1.274-0.414 0-0.75-0.336-0.75-0.75s0.335-0.75 0.75-0.75c1.793 0 3.525 0.529 5.006 1.53 0.343 0.232 0.434 0.698 0.201 1.042-0.145 0.214-0.381 0.33-0.622 0.33z"></path>
<path fill="#c880d9" d="M0.799 9.75c-0.414 0-0.75-0.335-0.75-0.749-0.002-1.955 0.615-3.813 1.784-5.375 0.249-0.332 0.719-0.398 1.050-0.15 0.332 0.248 0.399 0.718 0.15 1.050-0.972 1.299-1.486 2.846-1.484 4.473 0.001 0.414-0.335 0.751-0.75 0.751 0.001 0 0.001 0 0 0z"></path>
</svg>
<svg id="aside-icons-myshare" width="18" height="18" viewBox="0 0 18 18" x="308" y="0">
<path fill="#999" d="M14.428 1.5c1.037 0 1.881 0.844 1.881 1.881s-0.844 1.881-1.881 1.881-1.881-0.844-1.881-1.881 0.844-1.881 1.881-1.881zM14.428 0c-1.867 0-3.381 1.514-3.381 3.381s1.514 3.381 3.381 3.381 3.381-1.514 3.381-3.381-1.513-3.381-3.381-3.381v0z"></path>
<path fill="#999" d="M3.982 8.469c1.369 0 2.482 1.113 2.482 2.482s-1.113 2.482-2.482 2.482-2.482-1.114-2.482-2.482 1.113-2.482 2.482-2.482zM3.982 6.969c-2.199 0-3.982 1.782-3.982 3.982s1.783 3.982 3.982 3.982 3.982-1.783 3.982-3.982-1.783-3.982-3.982-3.982v0z"></path>
<path fill="#999" d="M15.029 13.566c0.784 0 1.421 0.638 1.421 1.421s-0.638 1.421-1.421 1.421-1.421-0.638-1.421-1.421 0.637-1.421 1.421-1.421zM15.029 12.066c-1.613 0-2.921 1.308-2.921 2.921s1.308 2.921 2.921 2.921 2.921-1.308 2.921-2.921-1.308-2.921-2.921-2.921v0z"></path>
<path fill="#999" d="M12.091 3.154l0.671 1.949-5.786 3.551-1.892-1.087z"></path>
<path fill="#999" d="M13.282 14.26l-0.482 1.914-6.381-2.276 0.272-2.172z"></path>
</svg>
<svg id="aside-icons-myshare_hover" width="18" height="18" viewBox="0 0 18 18" x="330" y="0">
<path fill="#2b89ea" d="M17.831 3.385c0 1.869-1.516 3.385-3.385 3.385s-3.385-1.516-3.385-3.385c0-1.869 1.516-3.385 3.385-3.385s3.385 1.516 3.385 3.385z"></path>
<path fill="#2b89ea" d="M7.974 10.964c0 2.202-1.785 3.987-3.987 3.987s-3.987-1.785-3.987-3.987c0-2.202 1.785-3.987 3.987-3.987s3.987 1.785 3.987 3.987z"></path>
<path fill="#2b89ea" d="M17.972 15.006c0 1.615-1.31 2.925-2.925 2.925s-2.925-1.31-2.925-2.925c0-1.615 1.31-2.925 2.925-2.925s2.925 1.31 2.925 2.925z"></path>
<path fill="#2b89ea" d="M12.106 3.157l1.192 1.632-6.314 3.876-1.894-1.089z"></path>
<path fill="#2b89ea" d="M13.883 14.277l-0.482 1.917-6.974-2.279 0.272-2.174z"></path>
</svg>
<svg id="aside-icons-recentupload" width="18" height="18" viewBox="0 0 18 18" x="352" y="0">
<path fill="#8e8e8e" d="M15.999 15.999v-14h-13.998v14h13.998zM15.999 18h-13.998c-1.106 0-2.001-0.895-2.001-2.001v-14c0-1.104 0.895-1.999 2.001-1.999h13.998c1.106 0 2.001 0.895 2.001 1.999v14c0 1.106-0.895 2.001-2.001 2.001v0 0z"></path>
<path fill="#8e8e8e" d="M13.001 11h-6.001v-2.001h6.001v2.001z"></path>
<path fill="#8e8e8e" d="M8.999 10h-1.999v-6h1.999v6z"></path>
<path fill="#8e8e8e" d="M7 8.999h6.001v2.001h-6.001v-2.001z"></path>
<path fill="#8e8e8e" d="M7 4h2v7h-2v-7z"></path>
</svg>
<svg id="aside-icons-recentupload_hover" width="18" height="18" viewBox="0 0 18 18" x="374" y="0">
<path fill="#36be63" d="M15.999 18h-13.998c-1.106 0-2.001-0.895-2.001-1.999v-14c0-1.106 0.895-2.001 2.001-2.001h13.998c1.106 0 2.001 0.895 2.001 2.001v14c0 1.104-0.895 1.999-2.001 1.999v0zM13.001 9.001h-4.002v-5.001h-1.999v7h6.001v-1.999z"></path>
</svg>
<svg id="aside-icons-recycle" width="18" height="18" viewBox="0 0 18 18" x="396" y="0">
<path fill="#8e8e8e" d="M18 4.999h-18v-1.999h18v1.999z"></path>
<path fill="#8e8e8e" d="M11.999 3v-1.001h-5.998v1.001h5.998zM14 4.999h-10v-4.999h10v4.999z"></path>
<path fill="#8e8e8e" d="M7 12.999v0zM8 14h-1.999v-7h1.999v7z"></path>
<path fill="#8e8e8e" d="M11 12.999v0zM11.999 14h-1.999v-7h1.999v7z"></path>
<path fill="#8e8e8e" d="M14 15.999v-11h-10v11h10zM14 18h-10c-1.104 0-1.999-0.895-1.999-2.001v-12.999h14v12.999c0 1.106-0.897 2.001-2.001 2.001v0 0z"></path>
</svg>
<svg id="aside-icons-recycle_hover" width="18" height="18" viewBox="0 0 18 18" x="418" y="0">
<path fill="#f09e3d" d="M18 5.001h-18v-2.001h18v2.001z"></path>
<path fill="#f09e3d" d="M11.999 3v-0.999h-5.998v0.999h5.998zM14 5.001h-10v-5.001h10v5.001z"></path>
<path fill="#f09e3d" d="M14 18h-10c-1.104 0-1.999-0.895-1.999-1.999v-13.001h14v13.001c0 1.104-0.897 1.999-2.001 1.999v0zM8 7h-1.999v7h1.999v-7zM11.999 7h-1.999v7h1.999v-7z"></path>
</svg>
<svg id="aside-icons-security" width="18" height="18" viewBox="0 0 18 18" x="440" y="0">
<path fill="#8e8e8e" d="M16 15.999v-7.999h-14v8h14zM16 18h-14c-1.104 0-2.001-0.895-2.001-2.001v-7.999c0-1.104 0.897-1.999 2.001-1.999h14c1.104 0 2.001 0.895 2.001 1.999v8c0 1.105-0.897 2-2.001 2v0 0z"></path>
<path fill="#8e8e8e" d="M11.001 6.001v-3.715c0-0.15-0.049-0.242-0.081-0.287h-3.84c-0.032 0.045-0.081 0.138-0.081 0.287v3.714h4.002zM12.722 8h-7.444c-0.172-0.337-0.278-0.724-0.278-1.144v-4.57c0-1.263 0.895-2.286 1.999-2.286h4.002c1.104 0 1.999 1.023 1.999 2.286v4.57c0 0.42-0.106 0.807-0.278 1.144v0 0z"></path>
<path fill="#8e8e8e" d="M11.001 11.999h-4.002v-1.999h4.002v1.999z"></path>
<path fill="#8e8e8e" d="M9.999 15h-1.998v-6.001h1.998v6.001z"></path>
</svg>
<svg id="aside-icons-security_hover" width="18" height="18" viewBox="0 0 18 18" x="462" y="0">
<path fill="#36be63" d="M11.001 6.001v-3.715c0-0.148-0.049-0.242-0.081-0.285h-3.84c-0.032 0.043-0.081 0.138-0.081 0.285v3.714h4.002zM12.722 8h-7.444c-0.172-0.337-0.278-0.724-0.278-1.142v-4.572c0-1.263 0.895-2.286 1.999-2.286h4.002c1.104 0 1.999 1.023 1.999 2.286v4.572c0 0.418-0.106 0.805-0.278 1.142v0 0z"></path>
<path fill="#36be63" d="M16 18h-14c-1.104 0-2.001-0.895-2.001-1.999v-8.001c0-1.104 0.897-1.999 2.001-1.999h14c1.104 0 2.001 0.895 2.001 1.999v8.002c0 1.103-0.897 1.998-2.001 1.998v0zM11.001 10h-1.002v-0.999h-1.998v0.999h-1.002v2.001h1.001v2.999h1.999v-2.998h1.001v-2.002h0.001z"></path>
</svg>
<svg id="aside-icons-account" width="18" height="18" viewBox="0 0 18 18" x="484" y="0">
<path fill="#8e8e8e" d="M8.993 17.925c-0.786 0-1.787-0.18-1.869-0.204-0.132-0.020-0.316-0.091-0.459-0.19l-0.323-0.224v-0.393c0-1.309-1.071-2.349-2.388-2.349-0.34 0-0.734 0.127-0.913 0.202-0.444 0.189-0.99 0.046-1.277-0.317l-0.064-0.094-1.299-2.303c-0.045-0.119-0.068-0.246-0.068-0.379 0-0.327 0.139-0.645 0.373-0.848 0.416-0.376 1.124-1.195 1.124-1.873 0-0.71-0.799-1.587-1.107-1.864-0.225-0.197-0.363-0.513-0.363-0.839 0-0.144 0.026-0.279 0.078-0.403l1.322-2.294c0.288-0.368 0.847-0.509 1.28-0.321 0.129 0.056 0.55 0.202 0.913 0.202 1.317 0 2.388-1.040 2.388-2.318v-0.4l0.332-0.253c0.141-0.094 0.32-0.164 0.519-0.201 0 0 1.012-0.187 1.8-0.187 0.773 0 1.756 0.179 1.798 0.187 0.167 0.031 0.548 0.175 0.548 0.175l0.483 0.184-0.010 0.514c0 1.311 0.954 2.3 2.22 2.3 0.345 0 0.739-0.128 0.919-0.204 0.418-0.18 0.984-0.045 1.271 0.321l0.063 0.094 1.314 2.345c0.045 0.119 0.067 0.247 0.067 0.379 0 0.323-0.134 0.639-0.359 0.844-0.002 0.002-0.267 0.251-0.529 0.603-0.345 0.46-0.527 0.886-0.527 1.23 0 0.34 0.179 0.762 0.517 1.22 0.229 0.311 0.46 0.541 0.509 0.589l0.013 0.012c0.22 0.204 0.351 0.517 0.351 0.837 0 0.141-0.025 0.273-0.074 0.396l-0.045 0.094-1.296 2.252c-0.266 0.34-0.765 0.491-1.183 0.357l-0.14-0.053c-0.195-0.076-0.559-0.186-0.871-0.186-1.317 0-2.389 1.040-2.389 2.319v0.398l-0.33 0.253c-0.142 0.096-0.323 0.166-0.525 0.202v0c0.001 0.001-1.012 0.188-1.794 0.188zM7.8 16.326c0.311 0.038 0.806 0.099 1.193 0.099 0.392 0 0.88-0.062 1.198-0.109 0.29-1.849 1.902-3.25 3.842-3.25 0.438 0 0.861 0.103 1.152 0.195l0.866-1.516c-0.13-0.14-0.309-0.344-0.489-0.588-0.537-0.728-0.81-1.438-0.81-2.11 0-0.681 0.278-1.397 0.826-2.129 0.183-0.244 0.365-0.449 0.5-0.591l-0.896-1.586c-0.292 0.093-0.71 0.193-1.149 0.193-1.929 0-3.426-1.352-3.682-3.226-0.283-0.045-0.889-0.133-1.358-0.133-0.393 0-0.881 0.061-1.198 0.108-0.29 1.849-1.902 3.25-3.842 3.25-0.439 0-0.865-0.104-1.153-0.195l-0.84 1.46c0.475 0.486 1.37 1.559 1.37 2.754 0 1.202-0.895 2.271-1.398 2.775l0.871 1.531c0.295-0.094 0.713-0.194 1.151-0.194 1.95 0.001 3.57 1.42 3.846 3.262z"></path>
<path fill="#8e8e8e" d="M9 12.072c-1.701 0-3.084-1.378-3.084-3.072s1.384-3.073 3.084-3.073c1.7 0 3.084 1.378 3.084 3.073 0 1.694-1.384 3.072-3.084 3.072zM9 7.428c-0.874 0-1.584 0.705-1.584 1.572s0.711 1.572 1.584 1.572 1.584-0.705 1.584-1.572c0-0.867-0.71-1.572-1.584-1.572z"></path>
</svg>
<svg id="aside-icons-account_hover" width="18" height="18" viewBox="0 0 18 18" x="506" y="0">
<path fill="#2b89ea" d="M7.185 17.67c-0.136-0.025-0.219-0.067-0.259-0.094v-0.033c0-1.848-1.53-3.352-3.411-3.352-0.598 0-1.191 0.235-1.307 0.284l-0.005 0.002-0.006 0.003c-0.141 0.061-0.33 0.013-0.421-0.103l-1.359-2.403c-0.014-0.036-0.021-0.075-0.021-0.122 0-0.119 0.051-0.243 0.126-0.31l0.004-0.003 0.004-0.004c0.249-0.226 1.493-1.418 1.493-2.656 0-1.307-1.413-2.591-1.472-2.646-0.075-0.065-0.125-0.19-0.125-0.307 0-0.048 0.007-0.089 0.022-0.124l1.326-2.317c0.091-0.118 0.283-0.165 0.424-0.104 0.027 0.011 0.671 0.288 1.317 0.288 1.881 0 3.411-1.504 3.411-3.352v-0.033c0.040-0.027 0.123-0.069 0.26-0.094 0.010-0.002 1.034-0.19 1.806-0.19 0.775 0 1.796 0.188 1.806 0.19v0l0.001 0.001c0.136 0.025 0.219 0.066 0.259 0.094v0.033c0 1.848 1.53 3.352 3.411 3.352 0.628 0 1.247-0.258 1.316-0.287l0.002-0.001 0.001-0.001c0.14-0.061 0.329-0.013 0.42 0.103l1.376 2.447c0.014 0.036 0.021 0.078 0.021 0.126 0 0.14-0.062 0.261-0.125 0.318l-0.004 0.004c-0.014 0.013-0.345 0.325-0.674 0.768-0.488 0.655-0.736 1.272-0.736 1.834 0 0.556 0.243 1.167 0.721 1.819 0.315 0.429 0.626 0.731 0.661 0.764l0.003 0.003 0.003 0.002c0.061 0.057 0.121 0.176 0.121 0.315 0 0.049-0.007 0.091-0.022 0.129l-1.343 2.362c-0.091 0.118-0.283 0.166-0.424 0.104l-0.010-0.004c-0.113-0.047-0.708-0.284-1.306-0.284-1.881 0-3.411 1.504-3.411 3.352v0.033c-0.040 0.027-0.123 0.069-0.259 0.094-0.011 0.002-1.039 0.191-1.807 0.191-0.776 0-1.797-0.188-1.808-0.191v0z"></path>
<path fill="#fff" d="M6.463 8.931c0-1.399 1.138-2.537 2.537-2.537s2.537 1.138 2.537 2.537c0 1.399-1.138 2.537-2.537 2.537-1.399-0.001-2.537-1.139-2.537-2.537v0z"></path>
</svg>
<svg id="aside-icons-contact" width="18" height="18" viewBox="0 0 18 18" x="528" y="0">
<path fill="#8e8e8e" d="M13.992 15.965c0.478 0 0.824-0.102 0.998-0.183v-9.813h-12.979v9.813c0.173 0.081 0.519 0.183 0.998 0.183h10.983zM13.992 17.962h-10.983c-1.419 0-2.995-0.578-2.995-1.998v-13.992c0-1.419 0.578-1.998 1.997-1.998h12.979c1.419 0 1.997 0.58 1.997 1.998v13.991c0 1.42-1.576 1.999-2.995 1.999v0 0zM3.009 1.972c-0.551 0-0.998 0.448-0.998 0.999v0.999h12.979v-1.998h-11.981z"></path>
<path fill="#8e8e8e" d="M14.99 11.966h2.996v2.998h-2.996v-2.998z"></path>
<path fill="#8e8e8e" d="M14.99 7.969h2.996v2.998h-2.996v-2.998z"></path>
<path fill="#8e8e8e" d="M2.011 3.971h15.975v2.997h-15.975v-2.997z"></path>
</svg>
<svg id="aside-icons-contact_hover" width="18" height="18" viewBox="0 0 18 18" x="550" y="0">
<path fill="#c97ddb" d="M13.982 17.976h-10.961c-1.414 0-2.988-0.579-2.988-1.996v-13.962c0-1.416 0.577-1.994 1.993-1.994h12.952c1.416 0 1.993 0.579 1.993 1.994v13.962c-0.001 1.417-1.574 1.996-2.989 1.996v0zM14.979 2.018h-11.964c-0.55 0-0.997 0.447-0.997 0.997v0.997h12.961v-1.994z"></path>
<path fill="#c97ddb" d="M11.989 11.991h5.978v2.992h-5.978v-2.992z"></path>
<path fill="#c97ddb" d="M11.989 8.003h5.978v2.991h-5.978v-2.991z"></path>
<path fill="#c97ddb" d="M11.989 4.013h5.978v2.993h-5.978v-2.993z"></path>
</svg>
<svg id="aside-icons-message" width="18" height="18" viewBox="0 0 18 18" x="572" y="0">
<path fill="#8e8e8e" d="M12.831 15.925c0.076-0.121 0.163-0.307 0.199-0.437l0.369-1.519h1.562c0.477 0 0.824-0.101 0.994-0.183v-11.741h-13.91v11.741c0.172 0.082 0.517 0.183 0.994 0.183h6.812l0.587 0.614c0.51 0.534 1.799 1.189 2.393 1.342zM12.975 17.943c-1.022 0-3.104-1.076-3.974-1.988-3.3 0-5.962 0-5.962 0-1.411 0-2.982-0.577-2.982-1.986v-11.924c0-1.411 0.577-1.988 1.988-1.988h13.91c1.411 0 1.988 0.577 1.988 1.988v11.924c0 1.409-1.571 1.986-2.982 1.986 0 0-0.481 1.988-1.986 1.988v0 0z"></path>
<path fill="#8e8e8e" d="M13.969 7.013h-5.962v-1.988h5.962v1.988z"></path>
<path fill="#8e8e8e" d="M13.969 10.987h-5.962v-1.986h5.962v1.986z"></path>
</svg>
<svg id="aside-icons-message_hover" width="18" height="18" viewBox="0 0 18 18" x="594" y="0">
<path fill="#8e8e8e" d="M12.839 15.949c0.077-0.121 0.164-0.309 0.2-0.439l0.371-1.527h1.57c0.48 0 0.828-0.102 0.999-0.184v-11.8h-13.981v11.8c0.173 0.082 0.519 0.184 0.999 0.184h6.846l0.59 0.617c0.513 0.537 1.808 1.195 2.406 1.349z"></path>
<path fill="#2b89ea" d="M12.983 17.977c-1.028 0-3.12-1.081-3.994-1.998-3.316 0-5.992 0-5.992 0-1.418 0-2.997-0.58-2.997-1.996v-11.984c0-1.418 0.58-1.998 1.998-1.998h13.98c1.418 0 1.998 0.58 1.998 1.998v11.984c0 1.416-1.579 1.996-2.997 1.996 0 0-0.483 1.998-1.996 1.998v0 0z"></path>
<path fill="#fff" d="M13.982 6.992h-5.992v-1.998h5.992v1.998z"></path>
<path fill="#fff" d="M13.982 10.986h-5.992v-1.996h5.992v1.996z"></path>
</svg>
<svg id="aside-icons-record" width="18" height="18" viewBox="0 0 18 18" x="616" y="0">
<path fill="#8e8e8e" d="M8.273 12.191l-0.076-0.716c-0.447-4.195 0.218-7.315 1.977-9.271 1.714-1.907 4.029-2.192 5.257-2.192 0.657 0 1.090 0.077 1.137 0.086l0.521 0.097 0.083 0.523c0.531 3.336-0.018 6.054-1.633 8.075-2.436 3.050-6.379 3.341-6.546 3.352l-0.72 0.046zM15.431 1.512c-1.194 0-2.883 0.294-4.142 1.695-1.359 1.512-1.92 3.977-1.671 7.333 1.124-0.222 3.309-0.872 4.757-2.693 1.245-1.566 1.713-3.692 1.395-6.325-0.102-0.007-0.215-0.010-0.339-0.010z"></path>
<path fill="#8e8e8e" d="M7.461 13.706c0 0 0 0 0 0-1.894 0-3.439-0.602-4.592-1.788-2.195-2.257-2.122-5.81-2.118-5.96l0.020-0.699 0.699-0.030c2.932-0.121 5.080 0.629 6.528 2.218 2.044 2.243 1.783 5.314 1.771 5.443l-0.054 0.577-0.572 0.094c-0.584 0.096-1.151 0.145-1.682 0.145zM2.286 6.72c0.093 1.019 0.434 2.898 1.664 4.158 0.859 0.881 2.041 1.328 3.511 1.328v0c0.262 0 0.535-0.015 0.817-0.043-0.037-0.857-0.269-2.483-1.398-3.714-1.015-1.108-2.559-1.689-4.594-1.729z"></path>
<path fill="#8e8e8e" d="M7.962 12.647l0.547-1.018h1.764v6.371h-2.311z"></path>
</svg>
<svg id="aside-icons-record_hover" width="18" height="18" viewBox="0 0 18 18" x="638" y="0">
<path fill="#36be63" d="M16.927 0.101c0 0-10.69-1.989-9.107 12.846 0 0 11.037-0.722 9.107-12.846z"></path>
<path fill="#36be63" d="M0.847 5.399c0 0-0.273 9.736 9.030 8.216 0 0 0.805-8.625-9.030-8.216z"></path>
<path fill="#36be63" d="M7.943 12.653l0.547-1.014h1.758v6.349h-2.305z"></path>
</svg>
<svg id="aside-icons-return" width="18" height="18" viewBox="0 0 18 18" x="660" y="0">
<path fill="#8e8e8e" d="M14.938 17.144h-11.057c-0.552 0-1-0.447-1-1s0.448-1 1-1h11.057c0.562 0 1.036-0.356 1.036-0.777v-7.966c0-0.421-0.475-0.776-1.036-0.776h-9.692c-0.552 0-1-0.448-1-1s0.448-1 1-1h9.691c1.674 0 3.036 1.246 3.036 2.776v7.965c0.001 1.531-1.362 2.778-3.035 2.778z"></path>
<path fill="#8e8e8e" d="M6.441 8.465l-6.441-3.84 6.441-3.84z"></path>
</svg>
<svg id="aside-icons-return_hover" width="18" height="18" viewBox="0 0 18 18" x="682" y="0">
<path fill="#36be63" d="M14.899 17.124h-11.028c-0.552 0-1-0.447-1-1s0.448-1 1-1h11.028c0.55 0 1.031-0.361 1.031-0.772v-7.945c0-0.411-0.481-0.772-1.031-0.772h-9.667c-0.552 0-1-0.448-1-1s0.448-1 1-1h9.667c1.672 0 3.031 1.244 3.031 2.772v7.945c0.001 1.528-1.359 2.772-3.031 2.772z"></path>
<path fill="#36be63" d="M6.424 8.465l-6.424-3.83 6.424-3.831z"></path>
</svg>
<svg id="aside-icons-spaceexpand" width="18" height="18" viewBox="0 0 18 18" x="704" y="0">
<path fill="#8e8e8e" d="M9.047 6c3.871 0 6-1.219 6-1.999 0-0.813-2.13-2.209-6.001-2.209-3.873 0-6 1.365-6 2.209 0.001 0.78 2.128 1.999 6.001 1.999zM9.047 8.001c-4.418 0-8.001-1.792-8.001-4 0-2.21 3.583-4.001 8.001-4.001s7.999 1.792 7.999 4.001c0.001 2.208-3.581 4-7.999 4v0 0z"></path>
<path fill="#8e8e8e" d="M9.047 11c3.876 0 5.916-1.416 7.973-2.651-0.045 0.027 0.027 0.1 0.027 0.152 0 2.485-3.582 4.5-7.999 4.5s-7.999-2.015-7.999-4.5c0-0.052 0.071-0.124 0.027-0.152 1.95 1.214 3.931 2.651 7.971 2.651v0z"></path>
<path fill="#8e8e8e" d="M9.047 16c4.207 0 5.736-1.292 7.971-2.663 0.004 0.055 0.029 0.107 0.029 0.164 0 2.485-3.582 4.5-7.999 4.5-4.266 0-7.719-1.885-7.955-4.25 2.052 1.122 3.681 2.249 7.954 2.249v0z"></path>
</svg>
<svg id="aside-icons-spaceexpand_hover" width="18" height="18" viewBox="0 0 18 18" x="726" y="0">
<path fill="#f09e3d" d="M9.012 7.948c-4.418 0-8.001-1.792-8.001-4 0-2.21 3.583-4.001 8.001-4.001s7.999 1.792 7.999 4.001c0 2.209-3.582 4-7.999 4v0 0z"></path>
<path fill="#f09e3d" d="M8.988 11.052c3.876 0 5.916-1.416 7.973-2.651-0.045 0.027 0.027 0.1 0.027 0.152 0 2.485-3.582 4.5-7.999 4.5s-7.999-2.015-7.999-4.5c0-0.052 0.071-0.124 0.027-0.152 1.95 1.214 3.931 2.651 7.971 2.651v0z"></path>
<path fill="#f09e3d" d="M8.988 16.052c4.207 0 5.736-1.292 7.971-2.663 0.004 0.055 0.029 0.107 0.029 0.164 0 2.485-3.582 4.5-7.999 4.5-4.266 0-7.719-1.885-7.955-4.25 2.052 1.122 3.681 2.249 7.954 2.249v0z"></path>
</svg>
<svg id="aside-icons-task" width="18" height="18" viewBox="0 0 18 18" x="748" y="0">
<path fill="#8e8e8e" d="M14.060 17.965h-10.12c-1.621 0-2.94-1.346-2.94-3v-9.605c0-1.654 1.319-3 2.94-3 0.552 0 1 0.448 1 1s-0.448 1-1 1c-0.518 0-0.94 0.449-0.94 1v9.604c0 0.552 0.422 1 0.94 1h10.12c0.519 0 0.94-0.448 0.94-1v-9.604c0-0.551-0.422-1-0.94-1-0.553 0-1-0.448-1-1s0.447-1 1-1c1.621 0 2.94 1.346 2.94 3v9.604c0 1.655-1.319 3.001-2.94 3.001z"></path>
<path fill="#8e8e8e" d="M6.010 3.965v-2.168c0 0 0.124-1.834 2.791-1.834s3.19 0.829 3.19 1.79 0 2.212 0 2.212h-5.981z"></path>
<path fill="#8e8e8e" d="M12.532 6.649l-5.331 5.512 1.465 1.515 5.33-5.512z"></path>
<path fill="#8e8e8e" d="M6.495 8.554l3.012 2.952-1.426 1.554-3.010-2.952z"></path>
</svg>
<svg id="aside-icons-task_hover" width="18" height="18" viewBox="0 0 18 18" x="770" y="0">
<path fill="#f75a54" d="M5.836 4.24v-2.294c0 0 0.131-1.94 2.953-1.94s3.375 0.877 3.375 1.894 0 2.34 0 2.34h-6.328z"></path>
<path fill="#f75a54" d="M14.972 17.997h-11.978c-1.1 0-2-0.9-2-2v-10.4c0-1.1 0.9-2 2-2h11.978c1.1 0 2 0.9 2 2v10.4c0 1.1-0.9 2-2 2z"></path>
<path fill="#fff" d="M12.736 7.079l-5.639 5.833 1.55 1.603 5.639-5.833z"></path>
<path fill="#fff" d="M6.35 9.095l3.186 3.124-1.508 1.643-3.185-3.123z"></path>
</svg>
</svg>
